<svg width="135" height="135" xmlns="http://www.w3.org/2000/svg">
 <!-- Created with Method Draw - http://github.com/duopixel/Method-Draw/ -->

 <g>
  <title>background</title>
  <rect fill="#fff0" id="canvas_background" height="137" width="137" y="-1" x="-1"/>
  <g display="none" overflow="visible" y="0" x="0" height="100%" width="100%" id="canvasGrid">
   <rect fill="url(#gridpattern)" stroke-width="0" y="0" x="0" height="100%" width="100%"/>
  </g>
 </g>
 <g>
  <title>Layer 1</title>
  <line stroke-linecap="null" stroke-linejoin="null" id="svg_17" y2="111.512603" x2="9.831931" y1="70.336132" x1="124.537813" stroke-opacity="null" stroke-width="5.5" stroke="#000" fill="none"/>
  <line transform="rotate(0.055227022618055344 67.77310943603108,90.33613586426085) " stroke-linecap="null" stroke-linejoin="null" id="svg_18" y2="110.924368" x2="124.537813" y1="69.747897" x1="11.008401" stroke-opacity="null" stroke-width="5.5" stroke="#000" fill="none"/>
  <rect rx="15" id="svg_1" height="72" width="91" y="45.504332" x="22.390754" stroke-width="1.5" stroke="#000" fill="#000000"/>
  <path stroke="#000" id="svg_2" d="m22.333804,61.019007c0,-25.70871 1.12897,-43.42369 2.75059,-45.2603c1.62162,-1.83662 7.23996,-6.82744 15.28473,3.20509c8.04477,10.03252 17.0542,22.95549 19.09266,25.98408c2.03846,3.02859 -37.12798,41.77984 -37.12798,16.07113z" stroke-width="1.5" fill="#000000"/>
  <path stroke="#000" id="svg_3" d="m113.605779,61.019006c0,-25.70871 -1.13545,-43.42369 -2.76639,-45.2603c-1.63094,-1.83662 -7.28155,-6.82744 -15.37254,3.20509c-8.09098,10.03252 -17.15217,22.95549 -19.20234,25.98408c-2.05017,3.02859 37.34127,41.77984 37.34127,16.07113z" stroke-width="1.5" fill="#000000"/>
  <path stroke="#000" d="m48.32368,67.345555c-0.269763,-0.539541 0,-0.539541 0.269778,-0.539541c0.539525,0 1.079066,0 1.88837,0c0.539541,0 1.079082,0 1.348845,0c0.269763,0 0.539541,0 1.079066,0c0.269778,0 0.539541,0 0.809319,0c0.539525,0 0.809304,0 1.079066,0c0.809304,0 1.348845,0 1.88837,0c0.269778,0 0.809319,0 1.618623,0c0.539525,0 1.079066,0 1.618607,0c0.809304,0 1.316087,0.133122 2.158148,0.269778c1.065136,0.172853 1.348829,0 1.88837,0c1.079082,0 1.888386,0 2.697689,0c1.88837,0 3.506977,0 4.855821,0c1.618607,0 2.967452,0 3.776755,0c0.809304,0 1.387783,0.40813 3.506993,0c1.426531,-0.274723 2.677657,-1.213298 4.046518,-1.348845c2.147641,-0.212647 3.506993,0 4.046534,0c0.269763,0 0.553963,0.123962 1.079066,0c0.587085,-0.13859 0.809304,-0.269763 1.348845,-0.269763l0.809304,-0.269778" id="svg_6" stroke-opacity="null" stroke-width="1.5" fill="none"/>
  <text stroke="#000" transform="matrix(2.3554542278432105,0,0,1.8965274643871906,-215.4412330020881,-154.75880149870733) " font-weight="bold" xml:space="preserve" text-anchor="start" font-family="Arvo, sans-serif" font-size="24" id="svg_13" y="133.846796" x="108.432162" stroke-opacity="null" stroke-width="0" fill="#ffffff">二</text>
 </g>
</svg>